<?xml version="1.0" encoding="utf-8"?>
<!-- Generator: Adobe Illustrator 22.0.1, SVG Export Plug-In . SVG Version: 6.00 Build 0)  -->
<svg version="1.1" id="Слой_1" xmlns="http://www.w3.org/2000/svg" xmlns:xlink="http://www.w3.org/1999/xlink" x="0px" y="0px"
	 viewBox="0 0 60 60" style="enable-background:new 0 0 60 60;" xml:space="preserve">
<style type="text/css">
	.st0{fill:none;stroke:#303033;stroke-linecap:round;stroke-miterlimit:10;}
	.st1{fill:none;stroke:#303033;stroke-width:0.75;stroke-linecap:round;stroke-miterlimit:10;}
</style>
<path class="st0" d="M38.5,37"/>
<path class="st0" d="M38.5,41.4v2.5c0,1.5-1.2,2.6-2.6,2.6H15.1c-1.5,0-2.6-1.2-2.6-2.6V30.1c0-1.5,1.2-2.6,2.6-2.6h20.7
	c1.5,0,2.6,1.2,2.6,2.6v1.9"/>
<path class="st0" d="M38.5,41.4"/>
<line class="st0" x1="39.5" y1="36.5" x2="29.5" y2="36.5"/>
<line class="st0" x1="29.5" y1="36.6" x2="29.5" y2="39.4"/>
<line class="st0" x1="32" y1="36.5" x2="32" y2="38.5"/>
<circle class="st0" cx="43.5" cy="36.5" r="4"/>
<path class="st0" d="M21.5,27.5h-4c-0.5,0-1-0.4-1-1v-1c0-0.5,0.4-1,1-1h4c0.5,0,1,0.4,1,1v1C22.5,27.1,22.1,27.5,21.5,27.5z"/>
<path class="st0" d="M33.5,27.5h-4c-0.5,0-1-0.4-1-1v-1c0-0.5,0.4-1,1-1h4c0.5,0,1,0.4,1,1v1C34.5,27.1,34,27.5,33.5,27.5z"/>
<path class="st0" d="M19.5,24.5c0-2.8,0-5,0-5"/>
<path class="st0" d="M31.5,24.5c0-2.8,0-5,0-5"/>
<path class="st0" d="M19.5,19.5c0-2.8,2.7-5,6-5"/>
<path class="st0" d="M31.5,19.5c0-2.8-2.7-5-6-5"/>
<line class="st1" x1="15.4" y1="36.3" x2="17" y2="37.4"/>
<line class="st1" x1="17" y1="36.3" x2="15.4" y2="37.4"/>
<line class="st1" x1="16.2" y1="37.6" x2="16.2" y2="36.1"/>
<line class="st1" x1="24.4" y1="36.3" x2="26" y2="37.4"/>
<line class="st1" x1="26" y1="36.3" x2="24.4" y2="37.4"/>
<line class="st1" x1="25.2" y1="37.6" x2="25.2" y2="36.1"/>
<line class="st1" x1="21.4" y1="36.3" x2="23" y2="37.4"/>
<line class="st1" x1="23" y1="36.3" x2="21.4" y2="37.4"/>
<line class="st1" x1="22.2" y1="37.6" x2="22.2" y2="36.1"/>
<line class="st1" x1="18.4" y1="36.3" x2="20" y2="37.4"/>
<line class="st1" x1="20" y1="36.3" x2="18.4" y2="37.4"/>
<line class="st1" x1="19.2" y1="37.6" x2="19.2" y2="36.1"/>
<line class="st1" x1="14.9" y1="38.5" x2="26.6" y2="38.5"/>
</svg>
